<svg xmlns="http://www.w3.org/2000/svg" xmlns:xlink="http://www.w3.org/1999/xlink"><defs>
<linearGradient id="paint0_linear" x1="19.774" y1="3.00672e-05" x2="105.785" y2="10.6444" gradientUnits="userSpaceOnUse">
<stop stop-color="#ED0233"/>
<stop offset="1" stop-color="#003EB7"/>
</linearGradient>
<linearGradient id="paint1_linear" x1="14" y1="49.52" x2="54.1858" y2="9.18415" gradientUnits="userSpaceOnUse">
<stop stop-color="#003D85"/>
<stop offset="0.885417" stop-color="#B80027"/>
</linearGradient>

<linearGradient id="paint0_linear" x1="14.435" y1="2.1949e-05" x2="77.2232" y2="7.77042" gradientUnits="userSpaceOnUse">
<stop stop-color="#ED0233"/>
<stop offset="1" stop-color="#003EB7"/>
</linearGradient>
<linearGradient id="paint1_linear" x1="11" y1="35.6533" x2="40.0231" y2="6.52189" gradientUnits="userSpaceOnUse">
<stop stop-color="#003D85"/>
<stop offset="0.885417" stop-color="#B80027"/>
</linearGradient>

<linearGradient id="paint0_linear" x1="14.435" y1="2.1949e-05" x2="77.2232" y2="7.77042" gradientUnits="userSpaceOnUse">
<stop stop-color="#ED0233"/>
<stop offset="1" stop-color="#003EB7"/>
</linearGradient>
<linearGradient id="paint1_linear" x1="11" y1="35.6533" x2="40.0231" y2="6.52189" gradientUnits="userSpaceOnUse">
<stop stop-color="#003D85"/>
<stop offset="0.885417" stop-color="#B80027"/>
</linearGradient>
</defs><symbol id="arrow-next-lg" viewBox="0 0 18 34">
<path d="M1 1L17 17L1 33" stroke="#AFAFAF" fill="none"/>
</symbol><symbol id="arrow-next-md" viewBox="0 0 18 34">
<path d="M1 1L17 17L1 33" stroke="#AFAFAF" fill="none"/>
</symbol><symbol id="arrow-next-sm" viewBox="0 0 12 21">
<path d="M1 1L11 10.5L1 20" stroke="#AFAFAF" fill="none"/>
</symbol><symbol id="arrow-prev-lg" viewBox="0 0 18 34">
<path d="M17 1L0.999999 17L17 33" stroke="#AFAFAF" fill="none"/>
</symbol><symbol id="arrow-prev-md" viewBox="0 0 18 34">
<path d="M17 1L0.999999 17L17 33" stroke="#AFAFAF" fill="none"/>
</symbol><symbol id="arrow-prev-sm" viewBox="0 0 12 21">
<path d="M11 20L1 10.5L11 1" stroke="#AFAFAF" fill="none"/>
</symbol><symbol id="fb-lg" viewBox="0 0 12 24">
<path d="M11.5481 0.0049936L8.66986 0C5.43624 0 3.34653 2.31828 3.34653 5.90643V8.62969H0.452578C0.202506 8.62969 0 8.84891 0 9.11932V13.065C0 13.3354 0.202736 13.5544 0.452578 13.5544H3.34653V23.5106C3.34653 23.781 3.54904 24 3.79911 24H7.5749C7.82497 24 8.02748 23.7808 8.02748 23.5106V13.5544H11.4112C11.6613 13.5544 11.8638 13.3354 11.8638 13.065L11.8652 9.11932C11.8652 8.98948 11.8174 8.86514 11.7326 8.77326C11.6479 8.68138 11.5324 8.62969 11.4123 8.62969H8.02748V6.32115C8.02748 5.21157 8.27201 4.64829 9.60873 4.64829L11.5477 4.64755C11.7975 4.64755 12 4.42833 12 4.15817V0.494367C12 0.224462 11.7977 0.00549296 11.5481 0.0049936Z" fill="white"/>
</symbol><symbol id="fb-md" viewBox="0 0 12 24">
<path d="M11.5481 0.0049936L8.66986 0C5.43624 0 3.34653 2.31828 3.34653 5.90643V8.62969H0.452578C0.202506 8.62969 0 8.84891 0 9.11932V13.065C0 13.3354 0.202736 13.5544 0.452578 13.5544H3.34653V23.5106C3.34653 23.781 3.54904 24 3.79911 24H7.5749C7.82497 24 8.02748 23.7808 8.02748 23.5106V13.5544H11.4112C11.6613 13.5544 11.8638 13.3354 11.8638 13.065L11.8652 9.11932C11.8652 8.98948 11.8174 8.86514 11.7326 8.77326C11.6479 8.68138 11.5324 8.62969 11.4123 8.62969H8.02748V6.32115C8.02748 5.21157 8.27201 4.64829 9.60873 4.64829L11.5477 4.64755C11.7975 4.64755 12 4.42833 12 4.15817V0.494367C12 0.224462 11.7977 0.00549296 11.5481 0.0049936Z" fill="white"/>
</symbol><symbol id="fb-sm" viewBox="0 0 14 27">
<path d="M13.4728 0.0056178L10.1148 0C6.34228 0 3.90429 2.60806 3.90429 6.64474V9.7084H0.528007C0.236257 9.7084 0 9.95503 0 10.2592V14.6981C0 15.0023 0.236526 15.2487 0.528007 15.2487H3.90429V26.4495C3.90429 26.7537 4.14055 27 4.4323 27H8.83738C9.12914 27 9.36539 26.7534 9.36539 26.4495V15.2487H13.3131C13.6048 15.2487 13.8411 15.0023 13.8411 14.6981L13.8427 10.2592C13.8427 10.1132 13.7869 9.97328 13.688 9.86992C13.5892 9.76655 13.4545 9.7084 13.3144 9.7084H9.36539V7.11129C9.36539 5.86302 9.65068 5.22933 11.2102 5.22933L13.4723 5.22849C13.7637 5.22849 14 4.98187 14 4.67794V0.556162C14 0.25252 13.764 0.00617958 13.4728 0.0056178Z" fill="white"/>
</symbol><symbol id="ig-lg" viewBox="0 0 24 24">
<path d="M17.5034 0H6.49658C2.91431 0 0 2.91431 0 6.49658V17.5036C0 21.0857 2.91431 24 6.49658 24H17.5036C21.0857 24 24 21.0857 24 17.5036V6.49658C24 2.91431 21.0857 0 17.5034 0V0ZM12 18.5623C8.38147 18.5623 5.43768 15.6185 5.43768 12C5.43768 8.38147 8.38147 5.43768 12 5.43768C15.6185 5.43768 18.5623 8.38147 18.5623 12C18.5623 15.6185 15.6185 18.5623 12 18.5623ZM18.7192 6.98529C17.6499 6.98529 16.7802 6.11554 16.7802 5.0462C16.7802 3.97687 17.6499 3.10693 18.7192 3.10693C19.7886 3.10693 20.6585 3.97687 20.6585 5.0462C20.6585 6.11554 19.7886 6.98529 18.7192 6.98529Z" fill="white"/>
<path d="M12.0001 6.84448C9.15753 6.84448 6.84473 9.1571 6.84473 11.9998C6.84473 14.8423 9.15753 17.1552 12.0001 17.1552C14.8428 17.1552 17.1554 14.8423 17.1554 11.9998C17.1554 9.1571 14.8428 6.84448 12.0001 6.84448Z" fill="white"/>
<path d="M18.7186 4.51392C18.4253 4.51392 18.1865 4.75269 18.1865 5.04602C18.1865 5.33936 18.4253 5.57812 18.7186 5.57812C19.0121 5.57812 19.2509 5.33954 19.2509 5.04602C19.2509 4.7525 19.0121 4.51392 18.7186 4.51392Z" fill="white"/>
</symbol><symbol id="ig-md" viewBox="0 0 24 24">
<path d="M17.5034 0H6.49658C2.91431 0 0 2.91431 0 6.49658V17.5036C0 21.0857 2.91431 24 6.49658 24H17.5036C21.0857 24 24 21.0857 24 17.5036V6.49658C24 2.91431 21.0857 0 17.5034 0V0ZM12 18.5623C8.38147 18.5623 5.43768 15.6185 5.43768 12C5.43768 8.38147 8.38147 5.43768 12 5.43768C15.6185 5.43768 18.5623 8.38147 18.5623 12C18.5623 15.6185 15.6185 18.5623 12 18.5623ZM18.7192 6.98529C17.6499 6.98529 16.7802 6.11554 16.7802 5.0462C16.7802 3.97687 17.6499 3.10693 18.7192 3.10693C19.7886 3.10693 20.6585 3.97687 20.6585 5.0462C20.6585 6.11554 19.7886 6.98529 18.7192 6.98529Z" fill="white"/>
<path d="M12.0001 6.84448C9.15753 6.84448 6.84473 9.1571 6.84473 11.9998C6.84473 14.8423 9.15753 17.1552 12.0001 17.1552C14.8428 17.1552 17.1554 14.8423 17.1554 11.9998C17.1554 9.1571 14.8428 6.84448 12.0001 6.84448Z" fill="white"/>
<path d="M18.7186 4.51392C18.4253 4.51392 18.1865 4.75269 18.1865 5.04602C18.1865 5.33936 18.4253 5.57812 18.7186 5.57812C19.0121 5.57812 19.2509 5.33954 19.2509 5.04602C19.2509 4.7525 19.0121 4.51392 18.7186 4.51392Z" fill="white"/>
</symbol><symbol id="ig-sm" viewBox="0 0 27 27">
<path d="M19.6913 0H7.30865C3.27859 0 0 3.27859 0 7.30865V19.6916C0 23.7214 3.27859 27 7.30865 27H19.6916C23.7214 27 27 23.7214 27 19.6916V7.30865C27 3.27859 23.7214 0 19.6913 0V0ZM13.5 20.8826C9.42915 20.8826 6.11739 17.5708 6.11739 13.5C6.11739 9.42915 9.42915 6.11739 13.5 6.11739C17.5708 6.11739 20.8826 9.42915 20.8826 13.5C20.8826 17.5708 17.5708 20.8826 13.5 20.8826ZM21.0591 7.85845C19.8561 7.85845 18.8777 6.87998 18.8777 5.67698C18.8777 4.47398 19.8561 3.4953 21.0591 3.4953C22.2621 3.4953 23.2408 4.47398 23.2408 5.67698C23.2408 6.87998 22.2621 7.85845 21.0591 7.85845Z" fill="white"/>
<path d="M13.5002 7.70044C10.3023 7.70044 7.70044 10.3021 7.70044 13.5002C7.70044 16.698 10.3023 19.2999 13.5002 19.2999C16.6982 19.2999 19.2999 16.698 19.2999 13.5002C19.2999 10.3021 16.6982 7.70044 13.5002 7.70044Z" fill="white"/>
<path d="M21.0583 5.07861C20.7283 5.07861 20.4597 5.34723 20.4597 5.67723C20.4597 6.00723 20.7283 6.27585 21.0583 6.27585C21.3885 6.27585 21.6572 6.00744 21.6572 5.67723C21.6572 5.34702 21.3885 5.07861 21.0583 5.07861Z" fill="white"/>
</symbol><symbol id="logo-lg" viewBox="0 0 87 20">
<path d="M0.676 5.168C0.676 3.69467 1.03133 2.568 1.742 1.788C2.45267 0.990666 3.50133 0.592 4.888 0.592C6.27467 0.592 7.32333 0.990666 8.034 1.788C8.74467 2.568 9.1 3.69467 9.1 5.168V5.74H6.396V4.986C6.396 3.79 5.91933 3.192 4.966 3.192C4.01267 3.192 3.536 3.79 3.536 4.986C3.536 5.662 3.72667 6.30333 4.108 6.91C4.48933 7.49933 4.94867 8.03667 5.486 8.522C6.04067 9.00733 6.59533 9.51867 7.15 10.056C7.70467 10.576 8.17267 11.2347 8.554 12.032C8.93533 12.812 9.126 13.6787 9.126 14.632C9.126 16.1053 8.762 17.2407 8.034 18.038C7.306 18.818 6.24867 19.208 4.862 19.208C3.47533 19.208 2.418 18.818 1.69 18.038C0.962 17.2407 0.598 16.1053 0.598 14.632V13.514H3.302V14.814C3.302 15.9927 3.796 16.582 4.784 16.582C5.772 16.582 6.266 15.9927 6.266 14.814C6.266 14.138 6.07533 13.5053 5.694 12.916C5.31267 12.3093 4.84467 11.7633 4.29 11.278C3.75267 10.7927 3.20667 10.29 2.652 9.77C2.09733 9.23267 1.62933 8.574 1.248 7.794C0.866667 6.99667 0.676 6.12133 0.676 5.168ZM11.1546 0.799999H14.0146V14.84C14.0146 16.0187 14.5086 16.608 15.4966 16.608C16.4846 16.608 16.9786 16.0187 16.9786 14.84V0.799999H19.6826V14.658C19.6826 16.1313 19.3186 17.2667 18.5906 18.064C17.8626 18.844 16.8053 19.234 15.4186 19.234C14.0319 19.234 12.9746 18.844 12.2466 18.064C11.5186 17.2667 11.1546 16.1313 11.1546 14.658V0.799999ZM26.376 0.799999C29.2187 0.799999 30.64 2.29933 30.64 5.298V7.664C30.64 10.6627 29.2187 12.162 26.376 12.162H25.024V19H22.164V0.799999H26.376ZM26.376 3.4H25.024V9.562H26.376C26.844 9.562 27.1907 9.432 27.416 9.172C27.6587 8.912 27.78 8.47 27.78 7.846V5.116C27.78 4.492 27.6587 4.05 27.416 3.79C27.1907 3.53 26.844 3.4 26.376 3.4ZM35.3448 3.4V8.47H39.2708V11.07H35.3448V16.4H40.2848V19H32.4848V0.799999H40.2848V3.4H35.3448ZM51.469 19H48.557C48.3837 18.48 48.297 17.7347 48.297 16.764V13.904C48.297 13.072 48.1497 12.4827 47.855 12.136C47.5604 11.772 47.0837 11.59 46.425 11.59H45.437V19H42.577V0.799999H46.893C48.3664 0.799999 49.441 1.14667 50.117 1.84C50.793 2.516 51.131 3.56467 51.131 4.986V6.416C51.131 8.288 50.507 9.51867 49.259 10.108C50.5244 10.6453 51.157 11.9367 51.157 13.982V16.79C51.157 17.778 51.261 18.5147 51.469 19ZM46.815 3.4H45.437V8.99H46.555C47.127 8.99 47.5517 8.84267 47.829 8.548C48.1237 8.25333 48.271 7.75933 48.271 7.066V5.272C48.271 4.024 47.7857 3.4 46.815 3.4ZM57.848 11.46V8.86H61.852V14.632C61.852 16.1053 61.488 17.2407 60.76 18.038C60.032 18.818 58.9746 19.208 57.588 19.208C56.2013 19.208 55.144 18.818 54.416 18.038C53.688 17.2407 53.324 16.1053 53.324 14.632V5.168C53.324 3.69467 53.688 2.568 54.416 1.788C55.144 0.990666 56.2013 0.592 57.588 0.592C58.9746 0.592 60.032 0.990666 60.76 1.788C61.488 2.568 61.852 3.69467 61.852 5.168V6.936H59.148V4.986C59.148 3.79 58.654 3.192 57.666 3.192C56.678 3.192 56.184 3.79 56.184 4.986V14.814C56.184 15.9927 56.678 16.582 57.666 16.582C58.654 16.582 59.148 15.9927 59.148 14.814V11.46H57.848ZM66.506 19V12.968L62.892 0.799999H65.882L68.066 9.094L70.25 0.799999H72.98L69.366 12.968V19H66.506ZM78.6086 0.799999L80.7146 13.722L82.6646 0.799999H86.6426V19H83.9386V5.948L81.9626 19H79.2586L77.1266 6.13V19H74.6306V0.799999H78.6086Z" fill="white"/>
</symbol><symbol id="logo-md" viewBox="0 0 80 18">
<path d="M0.624 4.232C0.624 2.872 0.952 1.832 1.608 1.112C2.264 0.375999 3.232 0.0079999 4.512 0.0079999C5.792 0.0079999 6.76 0.375999 7.416 1.112C8.072 1.832 8.4 2.872 8.4 4.232V4.76H5.904V4.064C5.904 2.96 5.464 2.408 4.584 2.408C3.704 2.408 3.264 2.96 3.264 4.064C3.264 4.688 3.44 5.28 3.792 5.84C4.144 6.384 4.568 6.88 5.064 7.328C5.576 7.776 6.088 8.248 6.6 8.744C7.112 9.224 7.544 9.832 7.896 10.568C8.248 11.288 8.424 12.088 8.424 12.968C8.424 14.328 8.088 15.376 7.416 16.112C6.744 16.832 5.768 17.192 4.488 17.192C3.208 17.192 2.232 16.832 1.56 16.112C0.888 15.376 0.552 14.328 0.552 12.968V11.936H3.048V13.136C3.048 14.224 3.504 14.768 4.416 14.768C5.328 14.768 5.784 14.224 5.784 13.136C5.784 12.512 5.608 11.928 5.256 11.384C4.904 10.824 4.472 10.32 3.96 9.872C3.464 9.424 2.96 8.96 2.448 8.48C1.936 7.984 1.504 7.376 1.152 6.656C0.8 5.92 0.624 5.112 0.624 4.232ZM10.2966 0.199999H12.9366V13.16C12.9366 14.248 13.3926 14.792 14.3046 14.792C15.2166 14.792 15.6726 14.248 15.6726 13.16V0.199999H18.1686V12.992C18.1686 14.352 17.8326 15.4 17.1606 16.136C16.4886 16.856 15.5126 17.216 14.2326 17.216C12.9526 17.216 11.9766 16.856 11.3046 16.136C10.6326 15.4 10.2966 14.352 10.2966 12.992V0.199999ZM24.3471 0.199999C26.9711 0.199999 28.2831 1.584 28.2831 4.352V6.536C28.2831 9.304 26.9711 10.688 24.3471 10.688H23.0991V17H20.4591V0.199999H24.3471ZM24.3471 2.6H23.0991V8.288H24.3471C24.7791 8.288 25.0991 8.168 25.3071 7.928C25.5311 7.688 25.6431 7.28 25.6431 6.704V4.184C25.6431 3.608 25.5311 3.2 25.3071 2.96C25.0991 2.72 24.7791 2.6 24.3471 2.6ZM32.6259 2.6V7.28H36.2499V9.68H32.6259V14.6H37.1859V17H29.9859V0.199999H37.1859V2.6H32.6259ZM47.5099 17H44.8219C44.6619 16.52 44.5819 15.832 44.5819 14.936V12.296C44.5819 11.528 44.4459 10.984 44.1739 10.664C43.9019 10.328 43.4619 10.16 42.8539 10.16H41.9419V17H39.3019V0.199999H43.2859C44.6459 0.199999 45.6379 0.519999 46.2619 1.16C46.8859 1.784 47.1979 2.752 47.1979 4.064V5.384C47.1979 7.112 46.6219 8.248 45.4699 8.792C46.6379 9.288 47.2219 10.48 47.2219 12.368V14.96C47.2219 15.872 47.3179 16.552 47.5099 17ZM43.2139 2.6H41.9419V7.76H42.9739C43.5019 7.76 43.8939 7.624 44.1499 7.352C44.4219 7.08 44.5579 6.624 44.5579 5.984V4.328C44.5579 3.176 44.1099 2.6 43.2139 2.6ZM53.3981 10.04V7.64H57.0941V12.968C57.0941 14.328 56.7581 15.376 56.0861 16.112C55.4141 16.832 54.4381 17.192 53.1581 17.192C51.8781 17.192 50.9021 16.832 50.2301 16.112C49.5581 15.376 49.2221 14.328 49.2221 12.968V4.232C49.2221 2.872 49.5581 1.832 50.2301 1.112C50.9021 0.375999 51.8781 0.0079999 53.1581 0.0079999C54.4381 0.0079999 55.4141 0.375999 56.0861 1.112C56.7581 1.832 57.0941 2.872 57.0941 4.232V5.864H54.5981V4.064C54.5981 2.96 54.1421 2.408 53.2301 2.408C52.3181 2.408 51.8621 2.96 51.8621 4.064V13.136C51.8621 14.224 52.3181 14.768 53.2301 14.768C54.1421 14.768 54.5981 14.224 54.5981 13.136V10.04H53.3981ZM61.3901 17V11.432L58.0541 0.199999H60.8141L62.8301 7.856L64.8461 0.199999H67.3661L64.0301 11.432V17H61.3901ZM72.5618 0.199999L74.5058 12.128L76.3058 0.199999H79.9778V17H77.4818V4.952L75.6578 17H73.1618L71.1938 5.12V17H68.8898V0.199999H72.5618Z" fill="white"/>
</symbol><symbol id="logo-sm" viewBox="0 0 67 16">
<path d="M0.52 4.36C0.52 3.22667 0.793333 2.36 1.34 1.76C1.88667 1.14667 2.69333 0.84 3.76 0.84C4.82667 0.84 5.63333 1.14667 6.18 1.76C6.72667 2.36 7 3.22667 7 4.36V4.8H4.92V4.22C4.92 3.3 4.55333 2.84 3.82 2.84C3.08667 2.84 2.72 3.3 2.72 4.22C2.72 4.74 2.86667 5.23333 3.16 5.7C3.45333 6.15333 3.80667 6.56667 4.22 6.94C4.64667 7.31333 5.07333 7.70667 5.5 8.12C5.92667 8.52 6.28667 9.02667 6.58 9.64C6.87333 10.24 7.02 10.9067 7.02 11.64C7.02 12.7733 6.74 13.6467 6.18 14.26C5.62 14.86 4.80667 15.16 3.74 15.16C2.67333 15.16 1.86 14.86 1.3 14.26C0.74 13.6467 0.46 12.7733 0.46 11.64V10.78H2.54V11.78C2.54 12.6867 2.92 13.14 3.68 13.14C4.44 13.14 4.82 12.6867 4.82 11.78C4.82 11.26 4.67333 10.7733 4.38 10.32C4.08667 9.85333 3.72667 9.43333 3.3 9.06C2.88667 8.68667 2.46667 8.3 2.04 7.9C1.61333 7.48667 1.25333 6.98 0.96 6.38C0.666667 5.76667 0.52 5.09333 0.52 4.36ZM8.58047 0.999999H10.7805V11.8C10.7805 12.7067 11.1605 13.16 11.9205 13.16C12.6805 13.16 13.0605 12.7067 13.0605 11.8V0.999999H15.1405V11.66C15.1405 12.7933 14.8605 13.6667 14.3005 14.28C13.7405 14.88 12.9271 15.18 11.8605 15.18C10.7938 15.18 9.98047 14.88 9.42047 14.28C8.86047 13.6667 8.58047 12.7933 8.58047 11.66V0.999999ZM20.2892 0.999999C22.4759 0.999999 23.5692 2.15333 23.5692 4.46V6.28C23.5692 8.58667 22.4759 9.74 20.2892 9.74H19.2492V15H17.0492V0.999999H20.2892ZM20.2892 3H19.2492V7.74H20.2892C20.6492 7.74 20.9159 7.64 21.0892 7.44C21.2759 7.24 21.3692 6.9 21.3692 6.42V4.32C21.3692 3.84 21.2759 3.5 21.0892 3.3C20.9159 3.1 20.6492 3 20.2892 3ZM27.1883 3V6.9H30.2083V8.9H27.1883V13H30.9883V15H24.9883V0.999999H30.9883V3H27.1883ZM39.5916 15H37.3516C37.2182 14.6 37.1516 14.0267 37.1516 13.28V11.08C37.1516 10.44 37.0382 9.98667 36.8116 9.72C36.5849 9.44 36.2182 9.3 35.7116 9.3H34.9516V15H32.7516V0.999999H36.0716C37.2049 0.999999 38.0316 1.26667 38.5516 1.8C39.0716 2.32 39.3316 3.12667 39.3316 4.22V5.32C39.3316 6.76 38.8516 7.70667 37.8916 8.16C38.8649 8.57333 39.3516 9.56667 39.3516 11.14V13.3C39.3516 14.06 39.4316 14.6267 39.5916 15ZM36.0116 3H34.9516V7.3H35.8116C36.2516 7.3 36.5782 7.18667 36.7916 6.96C37.0182 6.73333 37.1316 6.35333 37.1316 5.82V4.44C37.1316 3.48 36.7582 3 36.0116 3ZM44.4984 9.2V7.2H47.5784V11.64C47.5784 12.7733 47.2984 13.6467 46.7384 14.26C46.1784 14.86 45.3651 15.16 44.2984 15.16C43.2318 15.16 42.4184 14.86 41.8584 14.26C41.2984 13.6467 41.0184 12.7733 41.0184 11.64V4.36C41.0184 3.22667 41.2984 2.36 41.8584 1.76C42.4184 1.14667 43.2318 0.84 44.2984 0.84C45.3651 0.84 46.1784 1.14667 46.7384 1.76C47.2984 2.36 47.5784 3.22667 47.5784 4.36V5.72H45.4984V4.22C45.4984 3.3 45.1184 2.84 44.3584 2.84C43.5984 2.84 43.2184 3.3 43.2184 4.22V11.78C43.2184 12.6867 43.5984 13.14 44.3584 13.14C45.1184 13.14 45.4984 12.6867 45.4984 11.78V9.2H44.4984ZM51.1584 15V10.36L48.3784 0.999999H50.6784L52.3584 7.38L54.0384 0.999999H56.1384L53.3584 10.36V15H51.1584ZM60.4681 0.999999L62.0881 10.94L63.5881 0.999999H66.6481V15H64.5681V4.96L63.0481 15H60.9681L59.3281 5.1V15H57.4081V0.999999H60.4681Z" fill="white"/>
</symbol><symbol id="video-button-lg" viewBox="0 0 100 100">
<circle cx="50" cy="50" r="49" stroke="url(#paint0_linear)" stroke-opacity="0.2" stroke-width="2"/>
<circle cx="50" cy="50" r="36" fill="url(#paint1_linear)"/>
<path d="M59 49.5L46.25 56.8612L46.25 42.1388L59 49.5Z" fill="white"/>

</symbol><symbol id="video-button-md" viewBox="0 0 73 73">
<circle cx="36.5" cy="36.5" r="35.5" stroke="url(#paint0_linear)" stroke-opacity="0.2" stroke-width="2"/>
<circle cx="37" cy="36" r="26" fill="url(#paint1_linear)"/>
<path d="M43 36L34 41.1962L34 30.8038L43 36Z" fill="white"/>

</symbol><symbol id="video-button-sm" viewBox="0 0 73 73">
<circle cx="36.5" cy="36.5" r="35.5" stroke="url(#paint0_linear)" stroke-opacity="0.2" stroke-width="2"/>
<circle cx="37" cy="36" r="26" fill="url(#paint1_linear)"/>
<path d="M43 36L34 41.1962L34 30.8038L43 36Z" fill="white"/>

</symbol><symbol id="vk-lg" viewBox="0 0 24 13">
<path fill-rule="evenodd" clip-rule="evenodd" d="M20.6554 8.26599C21.4515 9.00996 22.2918 9.70992 23.0058 10.5289C23.3212 10.8929 23.6199 11.2684 23.8483 11.6908C24.172 12.2912 23.8788 12.9519 23.3163 12.9878L19.82 12.9863C18.9182 13.0579 18.1988 12.7104 17.5939 12.1203C17.1098 11.6483 16.6615 11.146 16.1961 10.6581C16.0052 10.4587 15.8055 10.2711 15.5669 10.1228C15.0896 9.82623 14.6753 9.91703 14.4025 10.3935C14.1247 10.8781 14.0617 11.4148 14.0344 11.9549C13.997 12.7429 13.7481 12.9501 12.9211 12.9862C11.1537 13.066 9.47629 12.81 7.91806 11.9566C6.54426 11.2043 5.47894 10.1422 4.5517 8.93977C2.74634 6.59842 1.36379 4.02567 0.121208 1.38084C-0.158487 0.784951 0.0460603 0.465084 0.732957 0.453762C1.87358 0.432554 3.01405 0.434063 4.15601 0.452253C4.61959 0.458744 4.92649 0.713249 5.10549 1.13244C5.7226 2.58483 6.47771 3.96665 7.42553 5.24748C7.67794 5.58848 7.93532 5.92948 8.30184 6.16949C8.7073 6.43524 9.01602 6.34716 9.20677 5.91484C9.32781 5.64071 9.3808 5.34544 9.40808 5.05184C9.49845 4.04175 9.51035 3.03338 9.35186 2.02684C9.25455 1.39865 8.88488 0.991982 8.23 0.873108C7.89582 0.8125 7.94558 0.693475 8.10738 0.510898C8.38842 0.196012 8.65274 0 9.17964 0H13.1311C13.7532 0.117516 13.8913 0.385004 13.9765 0.984133L13.9799 5.18536C13.9731 5.4173 14.1009 6.10556 14.5374 6.25908C14.8867 6.36837 15.117 6.10088 15.3265 5.88887C16.2726 4.92776 16.9479 3.79192 17.5511 2.61578C17.8188 2.09861 18.049 1.56153 18.2721 1.02489C18.4373 0.626678 18.6967 0.430742 19.1653 0.439422L22.9684 0.442667C23.0811 0.442667 23.1952 0.444252 23.3044 0.46214C23.9453 0.566675 24.1209 0.830539 23.923 1.42952C23.6111 2.36927 23.0043 3.15241 22.411 3.93917C21.7768 4.77915 21.0985 5.59036 20.4696 6.43532C19.8917 7.20691 19.9376 7.59584 20.6554 8.26599Z" fill="white"/>
</symbol><symbol id="vk-md" viewBox="0 0 24 13">
<path fill-rule="evenodd" clip-rule="evenodd" d="M20.6554 8.26599C21.4515 9.00996 22.2918 9.70992 23.0058 10.5289C23.3212 10.8929 23.6199 11.2684 23.8483 11.6908C24.172 12.2912 23.8788 12.9519 23.3163 12.9878L19.82 12.9863C18.9182 13.0579 18.1988 12.7104 17.5939 12.1203C17.1098 11.6483 16.6615 11.146 16.1961 10.6581C16.0052 10.4587 15.8055 10.2711 15.5669 10.1228C15.0896 9.82623 14.6753 9.91703 14.4025 10.3935C14.1247 10.8781 14.0617 11.4148 14.0344 11.9549C13.997 12.7429 13.7481 12.9501 12.9211 12.9862C11.1537 13.066 9.47629 12.81 7.91806 11.9566C6.54426 11.2043 5.47894 10.1422 4.5517 8.93977C2.74634 6.59842 1.36379 4.02567 0.121208 1.38084C-0.158487 0.784951 0.0460603 0.465084 0.732957 0.453762C1.87358 0.432554 3.01405 0.434063 4.15601 0.452253C4.61959 0.458744 4.92649 0.713249 5.10549 1.13244C5.7226 2.58483 6.47771 3.96665 7.42553 5.24748C7.67794 5.58848 7.93532 5.92948 8.30184 6.16949C8.7073 6.43524 9.01602 6.34716 9.20677 5.91484C9.32781 5.64071 9.3808 5.34544 9.40808 5.05184C9.49845 4.04175 9.51035 3.03338 9.35186 2.02684C9.25455 1.39865 8.88488 0.991982 8.23 0.873108C7.89582 0.8125 7.94558 0.693475 8.10738 0.510898C8.38842 0.196012 8.65274 0 9.17964 0H13.1311C13.7532 0.117516 13.8913 0.385004 13.9765 0.984133L13.9799 5.18536C13.9731 5.4173 14.1009 6.10556 14.5374 6.25908C14.8867 6.36837 15.117 6.10088 15.3265 5.88887C16.2726 4.92776 16.9479 3.79192 17.5511 2.61578C17.8188 2.09861 18.049 1.56153 18.2721 1.02489C18.4373 0.626678 18.6967 0.430742 19.1653 0.439422L22.9684 0.442667C23.0811 0.442667 23.1952 0.444252 23.3044 0.46214C23.9453 0.566675 24.1209 0.830539 23.923 1.42952C23.6111 2.36927 23.0043 3.15241 22.411 3.93917C21.7768 4.77915 21.0985 5.59036 20.4696 6.43532C19.8917 7.20691 19.9376 7.59584 20.6554 8.26599Z" fill="white"/>
</symbol><symbol id="vk-sm" viewBox="0 0 32 17">
<path fill-rule="evenodd" clip-rule="evenodd" d="M27.5406 10.8094C28.602 11.7823 29.7224 12.6976 30.6744 13.7686C31.095 14.2445 31.4931 14.7356 31.7977 15.288C32.2293 16.0731 31.8384 16.9371 31.0885 16.984L26.4266 16.982C25.2243 17.0757 24.2651 16.6213 23.4586 15.8496C22.8131 15.2324 22.2154 14.5756 21.5948 13.9376C21.3403 13.6768 21.074 13.4314 20.7559 13.2375C20.1195 12.8497 19.5671 12.9684 19.2034 13.5915C18.833 14.2253 18.749 14.927 18.7126 15.6333C18.6627 16.6638 18.3308 16.9348 17.2281 16.9819C14.8716 17.0863 12.6351 16.7516 10.5574 15.6356C8.72568 14.6517 7.30526 13.2628 6.06893 11.6905C3.66178 8.62871 1.81839 5.26434 0.161611 1.80571C-0.211316 1.02647 0.0614137 0.608187 0.977277 0.593382C2.49811 0.565647 4.01873 0.567621 5.54135 0.591408C6.15946 0.599896 6.56866 0.93271 6.80732 1.48089C7.63014 3.38016 8.63694 5.18715 9.90071 6.86208C10.2373 7.30801 10.5804 7.75393 11.0691 8.0678C11.6097 8.41532 12.0214 8.30014 12.2757 7.73479C12.4371 7.37631 12.5077 6.9902 12.5441 6.60625C12.6646 5.28536 12.6805 3.96673 12.4691 2.65048C12.3394 1.829 11.8465 1.29721 10.9733 1.14176C10.5278 1.0625 10.5941 0.906852 10.8098 0.668097C11.1846 0.256323 11.537 0 12.2395 0H17.5081C18.3376 0.153675 18.5218 0.503466 18.6353 1.28694L18.6398 6.78085C18.6308 7.08416 18.8012 7.9842 19.3832 8.18495C19.8489 8.32787 20.1559 7.97808 20.4354 7.70083C21.6968 6.44399 22.5972 4.95866 23.4015 3.42063C23.7584 2.74434 24.0653 2.04199 24.3627 1.34024C24.5831 0.819502 24.9289 0.563278 25.5538 0.574628L30.6245 0.578872C30.7748 0.578872 30.927 0.580945 31.0726 0.604337C31.9271 0.741036 32.1612 1.08609 31.8973 1.86937C31.4815 3.09828 30.6724 4.12238 29.8814 5.15123C29.0357 6.24965 28.1313 7.31048 27.2928 8.41542C26.5223 9.42442 26.5835 9.93302 27.5406 10.8094Z" fill="white"/>
</symbol></svg>